<svg xmlns="http://www.w3.org/2000/svg" xmlns:xlink="http://www.w3.org/1999/xlink" version="1.1" style="" xml:space="preserve" width="535" height="89.70329658237438"><rect id="backgroundrect" width="100%" height="100%" x="0" y="0" fill="none" stroke="none" class="" style=""/>
<style type="text/css">
	.st0{fill:#0066CF;}
</style>






<g class="currentLayer" style=""><title>Layer 1</title><g id="svg_1" class="">
	<path class="st0" d="M2.5120873808860775,1.2362587451934814 l8.5,0 l0,77.2 l32.9,0 l0,8.2 l-41.4,0 L2.5120873808860775,1.2362587451934814 z" id="svg_2"/>
	<path class="st0" d="M116.11208738088607,23.436258745193484 l0,63.2 l-8,0 l0,-10.9 c-3.4,4.1 -7.2,7.3 -11.5,9.3 c-4.2,2.1 -8.9,3.1 -13.9,3.1 c-8.9,0 -16.6,-3.2 -22.9,-9.7 c-6.3,-6.5 -9.5,-14.4 -9.5,-23.7 c0,-9.1 3.2,-16.9 9.6,-23.3 c6.4,-6.5 14.1,-9.7 23,-9.7 c5.2,0 9.9,1.1 14.1,3.3 c4.2,2.2 7.9,5.5 11.1,9.9 l0,-11.6 L116.11208738088607,23.436258745193484 zM83.61208738088608,29.636258745193487 c-4.5,0 -8.7,1.1 -12.5,3.3 c-3.8,2.2 -6.9,5.3 -9.1,9.4 c-2.3,4 -3.4,8.3 -3.4,12.8 c0,4.4 1.1,8.7 3.4,12.8 c2.3,4.1 5.3,7.2 9.2,9.5 c3.8,2.3 8,3.4 12.4,3.4 c4.4,0 8.7,-1.1 12.6,-3.4 c4,-2.2 7,-5.3 9.2,-9.1 c2.1,-3.8 3.2,-8.1 3.2,-12.9 c0,-7.3 -2.4,-13.4 -7.2,-18.3 C96.61208738088608,32.13625874519349 90.61208738088608,29.636258745193487 83.61208738088608,29.636258745193487 z" id="svg_3"/>
	<path class="st0" d="M122.91208738088608,23.436258745193484 l8.4,0 l19.4,45.9 l20.2,-45.9 l1.5,0 l20.3,45.9 l19.7,-45.9 l8.5,0 l-27.4,63.2 h-1.5 l-20.2,-45.2 l-20.2,45.2 h-1.5 L122.91208738088608,23.436258745193484 z" id="svg_4"/>
	<path class="st0" d="M223.81208738088608,1.2362587451934814 l8.8,0 l17.4,61.5 l24.5,-61.5 l1.8,0 l24.2,61.5 l17.7,-61.5 l8.7,0 l-24.5,85.4 h-1.6 l-25.3,-64.6 l-25.8,64.6 h-1.6 L223.81208738088608,1.2362587451934814 z" id="svg_5"/>
	<path class="st0" d="M368.31208738088606,21.836258745193476 c9.7,0 17.8,3.5 24.2,10.6 c5.8,6.4 8.7,14 8.7,22.8 c0,8.8 -3.1,16.5 -9.2,23.1 c-6.1,6.6 -14,9.9 -23.7,9.9 c-9.7,0 -17.6,-3.3 -23.8,-9.9 c-6.1,-6.6 -9.2,-14.3 -9.2,-23.1 c0,-8.7 2.9,-16.3 8.7,-22.8 C350.4120873808861,25.336258745193476 358.5120873808861,21.836258745193476 368.31208738088606,21.836258745193476 zM368.31208738088606,29.73625874519348 c-6.8,0 -12.6,2.5 -17.4,7.5 c-4.9,5 -7.3,11 -7.3,18.1 c0,4.6 1.1,8.8 3.3,12.8 c2.2,3.9 5.2,7 9,9.1 s7.9,3.2 12.4,3.2 c4.5,0 8.6,-1.1 12.4,-3.2 c3.8,-2.1 6.8,-5.2 9,-9.1 c2.2,-3.9 3.3,-8.2 3.3,-12.8 c0,-7.1 -2.4,-13.1 -7.3,-18.1 C380.81208738088606,32.23625874519348 375.0120873808861,29.73625874519348 368.31208738088606,29.73625874519348 z" id="svg_6"/>
	<path class="st0" d="M410.2120873808861,23.436258745193484 l8.3,0 l0,9.2 c2.5,-3.6 5.1,-6.4 7.8,-8.2 c2.7,-1.8 5.6,-2.7 8.6,-2.7 c2.2,0 4.6,0.7000000000000003 7.2,2.1 l-4.2,6.9 c-1.7000000000000002,-0.7000000000000003 -3.1,-1.1 -4.3,-1.1 c-2.7,0 -5.3,1.1 -7.8,3.3 c-2.5,2.2 -4.4,5.7 -5.7,10.4 c-1,3.6 -1.5,10.9 -1.5,21.8 l0,21.4 h-8.3 L410.2120873808861,23.436258745193484 z" id="svg_7"/>
	<path class="st0" d="M446.0120873808861,-0.9637412548065214 l8.1,0 l0,49.9 l29.3,-25.5 l11.9,0 l-34.7,30.1 l36.7,33 l-11.4,0 l-31.8,-28.4 l0,28.4 l-8.1,0 L446.0120873808861,-0.9637412548065214 z" id="svg_8"/>
	<path class="st0" d="M534.5120873808861,30.336258745193476 l-5.2,5.4 c-4.3,-4.2 -8.6,-6.3 -12.7,-6.3 c-2.6,0 -4.9,0.9 -6.8,2.6 c-1.9,1.7000000000000002 -2.8,3.8 -2.8,6.1 c0,2.1 0.8,4 2.3,5.9 c1.5,1.9 4.8,4.1 9.8,6.7 c6.1,3.1 10.2,6.2 12.3,9.1 c2.1,2.9 3.2,6.3 3.2,9.9 c0,5.2 -1.8,9.6 -5.5,13.2 c-3.6,3.6 -8.2,5.4 -13.7,5.4 c-3.6,0 -7.1,-0.8 -10.4,-2.4 c-3.3,-1.6 -6.1,-3.8 -8.2,-6.6 l5.1,-5.8 c4.2,4.7 8.6,7 13.2,7 c3.3,0 6,-1 8.3,-3.1 c2.3,-2.1 3.4,-4.5 3.4,-7.4 c0,-2.3 -0.8,-4.4 -2.3,-6.2 c-1.5,-1.8 -4.9,-4 -10.2,-6.7 c-5.7,-2.9 -9.6,-5.8 -11.6,-8.7 c-2.1,-2.9 -3.1,-6.1 -3.1,-9.8 c0,-4.8 1.6,-8.8 4.9,-12 c3.3,-3.2 7.4,-4.8 12.4,-4.8 C522.812087380886,21.836258745193476 528.6120873808861,24.73625874519348 534.5120873808861,30.336258745193476 z" id="svg_9"/>
</g><g id="svg_10">
</g><g id="svg_11">
</g><g id="svg_12">
</g><g id="svg_13">
</g><g id="svg_14">
</g></g></svg>